<?xml version="1.0" encoding="iso-8859-1"?>
<!-- Uploaded to: SVG Repo, www.svgrepo.com, Generator: SVG Repo Mixer Tools -->
<!DOCTYPE svg PUBLIC "-//W3C//DTD SVG 1.1//EN" "http://www.w3.org/Graphics/SVG/1.1/DTD/svg11.dtd">
<svg fill="#000000" version="1.1" id="Capa_1" xmlns="http://www.w3.org/2000/svg" xmlns:xlink="http://www.w3.org/1999/xlink" 
	 width="800px" height="800px" viewBox="0 0 197.841 197.841"
	 xml:space="preserve">
<g>
	<g>
		<ellipse cx="72.881" cy="16.517" rx="16.736" ry="16.517"/>
		<path d="M172.783,163.788h-62.037c-5.836,0-10.845-4.157-11.918-9.894h64.514c4.592,0,8.63-3.039,9.902-7.451l8.113-28.131
			c0.896-3.111,0.28-6.465-1.667-9.053c-1.946-2.588-4.997-4.109-8.235-4.109h-81.76l-0.684-3.647
			c1.596-0.592,2.93-1.856,3.547-3.584c1.111-3.104-0.504-6.52-3.605-7.631c-0.086-0.031-8.697-3.248-16.074-10.623
			c-6.668-6.667-10.248-14.538-10.711-23.503c5.346-5.498,5.24-14.288-0.246-19.657c-5.496-5.38-14.313-5.282-19.689,0.214
			C25.09,54.236,17.065,83.408,21.789,111.045c0.322,1.893,1.332,3.932,1.986,5.15c4.043,7.545,14.463,31.781-6.502,68.229
			c-2.463,4.285-0.988,9.758,3.297,12.225c1.408,0.809,2.941,1.192,4.455,1.192c3.1-0.002,6.113-1.61,7.768-4.489
			c14.141-24.584,16.318-45.309,14.52-60.559c5.539,9.495,9.861,26.222,1.18,53.367c-1.506,4.71,1.09,9.748,5.799,11.253
			c0.908,0.291,1.826,0.429,2.729,0.428c3.789,0,7.309-2.425,8.525-6.228c7.826-24.473,7.711-45.67-0.342-63.006
			C60.197,117.83,53.5,111.631,49.439,108.62c0,0-0.105-1.718-0.236-2.479c-2.07-12.12-0.482-24.919,3.846-35.55
			c2.764,7.47,7.137,13.258,11.395,17.515c5.777,5.776,12.049,9.47,16.115,11.489l10.539,56.278
			c1.728,9.229,9.784,15.916,19.173,15.916h62.516c2.196,0,3.979-1.805,3.979-4.001
			C176.766,165.591,174.979,163.788,172.783,163.788z"/>
		<circle cx="110.793" cy="188.218" r="9.623"/>
		<circle cx="153.56" cy="188.218" r="9.623"/>
	</g>
</g>
</svg>